# xmcd
#
# Track frame offsets:
#	150
#	12543
#	29493
#	45666
#	58026
#	79175
#	98249
#	110767
#	123257
#	136434
#	148623
#	162402
#	168589
#	175150
#	185988
#	201013
#	211728
#	225355
#	236746
#	256838
#	270667
#	284617
#	298278
#
# Disc length: 4295 seconds
#
# Revision: 0
# Processed by: cddbd v1.5.2PL0 Copyright (c) Steve Scherf et al.
# Submitted via: EasyCDDAExtractor 2010.6.0.0
#
DISCID=6110c517
DTITLE=Daniel O'Donnell - Live In Nashville
DYEAR=2012
DGENRE=Country
TTITLE0=I'm Going to Be A Country Boy Again
TTITLE1=Jambalaya
TTITLE2=Release Me
TTITLE3=Ring Of Fire
TTITLE4=Forty Shades Of Green
TTITLE5=Erin Tennessee
TTITLE6=(Turn Out The Light And) Love Me Tonight
TTITLE7=Somebody touched Me
TTITLE8=King Of The Road
TTITLE9=Isle Of Hope
TTITLE10=Danny Boy
TTITLE11=Teetotallers Reel
TTITLE12=Temperance Reel
TTITLE13=Isle Of Hope (Reprise)
TTITLE14=Tipperary Girl
TTITLE15=I Love You Honey
TTITLE16=Crystal Chandeliers
TTITLE17=He'll Have To Go
TTITLE18=Heaven With You
TTITLE19=Here At The Grand Ole Opry
TTITLE20=I Just Want To Dance With You
TTITLE21=Stand Beside Me
TTITLE22=Thank God I'm A Country Boy
EXTD=
EXTT0=
EXTT1=
EXTT2=
EXTT3=
EXTT4=
EXTT5=
EXTT6=
EXTT7=
EXTT8=
EXTT9=
EXTT10=
EXTT11=
EXTT12=
EXTT13=
EXTT14=
EXTT15=
EXTT16=
EXTT17=
EXTT18=
EXTT19=
EXTT20=
EXTT21=
EXTT22=
PLAYORDER=
